<svg xmlns="http://www.w3.org/2000/svg" width="24" height="24" viewBox="0 0 24 24">
  <path id="booking" d="M20.991,6.981H0A5,5,0,0,1,5,1.995V1A1,1,0,0,1,7,1v1h7V1a1,1,0,0,1,2,0v1A5,5,0,0,1,20.991,6.981Zm-.162,11.788L15,16.483V11.036a2.071,2.071,0,0,0-1.663-2.074A2,2,0,0,0,11,10.929v9.9c-1.076-.884-2.11-1.747-2.144-1.779a2.287,2.287,0,0,0-3.136,3.33L7.545,24H24v-.591a4.986,4.986,0,0,0-3.17-4.64ZM9,16.792V10.93a3.949,3.949,0,0,1,.538-1.955H0v5.984a4.986,4.986,0,0,0,3.182,4.633,4.214,4.214,0,0,1,.985-1.8,4.3,4.3,0,0,1,4.839-1ZM20.7,16.574a4.9,4.9,0,0,0,.293-1.616V8.975H16.453A4.157,4.157,0,0,1,17,11.037v4.088l3.7,1.45Z" fill="#0347ff"/>
</svg>
