<svg xmlns="http://www.w3.org/2000/svg" width="24" height="24" viewBox="0 0 24 24">
  <defs>
    <style>
      .cls-1 {
        fill: #0347ff;
      }
    </style>
  </defs>
  <path id="calendar-clock" class="cls-1" d="M24,7V8H0V7A5,5,0,0,1,5,2H6V1A1,1,0,0,1,7,0H7A1,1,0,0,1,8,1V2h8V1a1,1,0,0,1,1-1h0a1,1,0,0,1,1,1V2h1A5,5,0,0,1,24,7Zm0,10a7,7,0,1,1-7-7A7.008,7.008,0,0,1,24,17Zm-5,.586-1-1V15a1,1,0,0,0-1-1h0a1,1,0,0,0-1,1v2a1,1,0,0,0,.293.707L17.586,19A1,1,0,0,0,19,19h0a1,1,0,0,0,0-1.414ZM8,17a8.98,8.98,0,0,1,3.349-7H0v9a5,5,0,0,0,5,5h6.349A8.98,8.98,0,0,1,8,17Z"/>
</svg>
