<svg xmlns="http://www.w3.org/2000/svg" width="24" height="24.001" viewBox="0 0 24 24.001">
  <defs>
    <style>
      .cls-1 {
        fill: #0347ff;
      }
    </style>
  </defs>
  <path id="land-layer-location" class="cls-1" d="M16.949,2.05a7,7,0,1,0-9.891,9.907L9.553,14.4a3.519,3.519,0,0,0,4.894,0l2.5-2.448a7,7,0,0,0,0-9.9ZM12,9.99a3,3,0,1,1,3-3A3,3,0,0,1,12,9.99Zm12,6.772a1,1,0,0,1-.485.863l-9.861,5.917a3.206,3.206,0,0,1-3.306,0L.485,17.625A1,1,0,0,1,.5,15.9L5.35,13.063c.1.11.2.219.309.325l2.495,2.439a5.518,5.518,0,0,0,7.692,0l2.518-2.463c.1-.1.194-.2.287-.3L23.5,15.9a1,1,0,0,1,.5.857Z" transform="translate(0)"/>
</svg>
